<svg width="32" height="32" viewBox="0 0 28 28" fill="none" xmlns="http://www.w3.org/2000/svg">
<path fill-rule="evenodd" clip-rule="evenodd" d="M22.8389 8.66809L19.0471 7.04306C18.9095 6.98565 18.7568 6.98565 18.6192 7.04306L14.8275 8.66809C14.6292 8.75368 14.5003 8.94977 14.5003 9.16644V11.3331C14.5003 14.3135 15.6021 16.0555 18.5639 17.7618C18.6474 17.8094 18.7405 17.8333 18.8337 17.8333C18.9269 17.8333 19.02 17.8094 19.1035 17.7618C22.0653 16.0598 23.1671 14.3178 23.1671 11.3331V9.16644C23.1671 8.94977 23.0382 8.75368 22.8389 8.66809ZM22.0838 11.3331C22.0838 13.8346 21.2561 15.2116 18.8337 16.6632C16.4113 15.2083 15.5836 13.8314 15.5836 11.3331V9.52394L18.8337 8.13075L22.0838 9.52394V11.3331ZM22.0837 17.2915C22.0837 16.9925 22.3264 16.7498 22.6254 16.7498C22.9244 16.7498 23.1671 16.9925 23.1671 17.2915V21.0832C23.1671 21.6813 22.6818 22.1666 22.0837 22.1666H6.91679C6.31878 22.1666 5.83344 21.6813 5.83344 21.0832V11.3331C5.83344 10.735 6.31878 10.2497 6.91679 10.2497H12.8752C13.1742 10.2497 13.4169 10.4924 13.4169 10.7914C13.4169 11.0904 13.1742 11.3331 12.8752 11.3331H6.91679V13.4998H12.8752C13.1742 13.4998 13.4169 13.7424 13.4169 14.0414C13.4169 14.3404 13.1742 14.5831 12.8752 14.5831H6.91679V21.0832H22.0837V17.2915ZM8.54182 16.7501H10.7085C11.0075 16.7501 11.2502 16.9928 11.2502 17.2918C11.2502 17.5908 11.0075 17.8335 10.7085 17.8335H8.54182C8.24282 17.8335 8.00015 17.5908 8.00015 17.2918C8.00015 16.9928 8.24282 16.7501 8.54182 16.7501ZM20.0362 10.4521C20.2247 10.2192 20.5649 10.1835 20.7978 10.3676C21.0318 10.5551 21.0686 10.8952 20.8823 11.1292L18.7156 13.8376C18.6116 13.9676 18.4556 14.0413 18.292 14.0413H18.2692C18.0959 14.0326 17.9377 13.9438 17.8413 13.7997L16.758 12.1747C16.5922 11.9266 16.6605 11.5897 16.9085 11.4239C17.1545 11.2592 17.4914 11.3253 17.6593 11.5745L18.3332 12.582L20.0362 10.4521Z" fill="#2B3445"/>
</svg>
