<svg width="32" height="32" viewBox="0 0 28 28" fill="none" xmlns="http://www.w3.org/2000/svg">
<path fill-rule="evenodd" clip-rule="evenodd" d="M9.68377 8.51703C10.7048 7.49599 12.0896 6.92239 13.5336 6.92239C14.2486 6.92239 14.9565 7.06321 15.6171 7.33682C16.2776 7.61043 16.8778 8.01146 17.3834 8.51703C17.8889 9.02259 18.29 9.62278 18.5636 10.2833C18.8372 10.9439 18.978 11.6519 18.978 12.3668V13.4557H17.8891C17.6003 13.4557 17.3234 13.5704 17.1192 13.7746C16.915 13.9788 16.8002 14.2558 16.8002 14.5446V17.8113C16.8002 18.1 16.915 18.377 17.1192 18.5812C17.3234 18.7854 17.6003 18.9001 17.8891 18.9001H18.978C18.978 19.3333 18.8059 19.7488 18.4996 20.0551C18.1933 20.3614 17.7779 20.5335 17.3447 20.5335H15.021C14.9738 20.4517 14.9158 20.3758 14.848 20.308C14.6438 20.1038 14.3668 19.989 14.078 19.989H12.9891C12.7003 19.989 12.4234 20.1038 12.2192 20.308C12.015 20.5122 11.9002 20.7891 11.9002 21.0779C11.9002 21.3667 12.015 21.6437 12.2192 21.8479C12.4234 22.0521 12.7003 22.1668 12.9891 22.1668H14.078C14.3668 22.1668 14.6438 22.0521 14.848 21.8479C14.9159 21.78 14.9739 21.7041 15.021 21.6223H17.3447C18.0667 21.6223 18.7591 21.3355 19.2696 20.825C19.7801 20.3145 20.0669 19.6221 20.0669 18.9001V17.8141L20.0669 17.8113V17.2668V13.4557V12.3668C20.0669 11.5089 19.8979 10.6593 19.5696 9.86663C19.2413 9.07397 18.76 8.35374 18.1533 7.74707C17.5467 7.14039 16.8264 6.65915 16.0338 6.33082C15.2411 6.00249 14.3915 5.8335 13.5336 5.8335C12.6756 5.8335 11.826 6.00249 11.0334 6.33082C10.2407 6.65915 9.52049 7.14039 8.91381 7.74707C8.30714 8.35374 7.8259 9.07397 7.49756 9.86663C7.16923 10.6593 7.00024 11.5089 7.00024 12.3668V13.4557V17.2668V17.8113C7.00024 18.1 7.11497 18.377 7.31917 18.5812C7.52338 18.7854 7.80034 18.9001 8.08913 18.9001H9.17802C9.46681 18.9001 9.74378 18.7854 9.94798 18.5812C10.1522 18.377 10.2669 18.1 10.2669 17.8113V14.5446C10.2669 14.2558 10.1522 13.9788 9.94798 13.7746C9.74378 13.5704 9.46681 13.4557 9.17802 13.4557H8.08913V12.3668C8.08913 10.9229 8.66274 9.53806 9.68377 8.51703Z" fill="#7D879C"/>
</svg>
