<svg width="32" height="32" viewBox="0 0 28 28" fill="none" xmlns="http://www.w3.org/2000/svg">
<path d="M20.5985 9.45587L14.7925 7.04529C14.647 6.98492 14.4835 6.98489 14.3381 7.04529L8.53213 9.45587C8.311 9.5477 8.16685 9.76359 8.16685 10.003V12.9334C8.16685 16.9684 10.6056 20.5979 14.3414 22.1227C14.4849 22.1813 14.6457 22.1813 14.7892 22.1227C18.5249 20.598 20.9637 16.9684 20.9637 12.9334V10.003C20.9637 9.76359 20.8196 9.5477 20.5985 9.45587V9.45587ZM19.7788 12.9334C19.7788 16.3636 17.7645 19.5212 14.5653 20.9307C11.4516 19.5589 9.35175 16.4565 9.35175 12.9334V10.3985L14.5653 8.23392L19.7788 10.3985V12.9334ZM13.9105 14.9304L16.4569 12.384C16.6883 12.1526 17.0634 12.1526 17.2948 12.384C17.5261 12.6153 17.5261 12.9904 17.2947 13.2218L14.3294 16.1872C14.098 16.4186 13.7229 16.4185 13.4915 16.1872L11.8358 14.5314C11.6044 14.3001 11.6044 13.9249 11.8358 13.6936C12.0672 13.4622 12.4423 13.4622 12.6737 13.6936L13.9105 14.9304Z" fill="#041533"/>
</svg>
