<svg width="28" height="28" viewBox="0 0 28 28" fill="none" xmlns="http://www.w3.org/2000/svg">
<path fill-rule="evenodd" clip-rule="evenodd" d="M25.7375 13.9409L24.353 12.1578L24.3543 12.1572L22.127 7.72734C22.0008 7.47665 21.7442 7.31849 21.4635 7.31849H18.2958V6.57591C18.2958 6.16582 17.9634 5.8335 17.5534 5.8335H5.17946C4.76937 5.8335 4.43705 6.16587 4.43705 6.57591C4.43705 6.98595 4.76942 7.31832 5.17946 7.31832H16.8109V12.5154C16.8109 12.9254 17.1433 13.2578 17.5533 13.2578H23.3273L24.4085 14.6506V18.4796H23.0092C22.6875 17.1875 21.5173 16.2274 20.1271 16.2274C18.7369 16.2274 17.5668 17.1875 17.245 18.4796H12.8627C12.5409 17.1875 11.3708 16.2274 9.98054 16.2274C8.59032 16.2274 7.42018 17.1875 7.09842 18.4796H5.17946C4.76937 18.4796 4.43705 18.8119 4.43705 19.222C4.43705 19.6321 4.76941 19.9644 5.17946 19.9644H7.11127C7.45034 21.2313 8.60821 22.1669 9.98054 22.1669C11.3529 22.1669 12.5107 21.2313 12.8498 19.9645H17.2579C17.597 21.2313 18.7548 22.1669 20.1271 22.1669C21.4997 22.1669 22.6574 21.2313 22.9964 19.9644H25.1509C25.561 19.9644 25.8933 19.632 25.8934 19.222V14.3962C25.8934 14.2314 25.8384 14.0711 25.7375 13.9409ZM21.0057 8.80337L22.4987 11.7729H18.2958V8.80337H21.0057ZM9.98054 20.682C9.16165 20.682 8.49567 20.016 8.49567 19.1971C8.49567 18.3782 9.16165 17.7123 9.98054 17.7123C10.7992 17.7123 11.4654 18.3782 11.4654 19.1971C11.4654 20.0161 10.7994 20.682 9.98054 20.682ZM20.1271 20.682C19.3082 20.682 18.6423 20.016 18.6423 19.1971C18.6423 18.3782 19.3082 17.7123 20.1271 17.7123C20.946 17.7123 21.612 18.3782 21.612 19.1971C21.612 20.0161 20.946 20.682 20.1271 20.682ZM4.28849 14.7185H7.70371C8.11376 14.7185 8.44613 15.0509 8.44608 15.4609C8.44608 15.8709 8.11376 16.2033 7.70367 16.2033H4.28849C3.87844 16.2033 3.54607 15.871 3.54607 15.4609C3.54607 15.0509 3.8784 14.7185 4.28849 14.7185ZM9.41131 11.7979H3.07585C2.6658 11.7979 2.33344 12.1303 2.33344 12.5404C2.33344 12.9505 2.6658 13.2828 3.07585 13.2828H9.41131C9.8214 13.2828 10.1537 12.9504 10.1537 12.5404C10.1537 12.1303 9.8214 11.7979 9.41131 11.7979ZM4.28849 8.87792H10.6239C11.034 8.87792 11.3664 9.21029 11.3664 9.62033C11.3664 10.0304 11.034 10.3627 10.6239 10.3627H4.28849C3.87844 10.3627 3.54607 10.0304 3.54607 9.62033C3.54607 9.21029 3.8784 8.87792 4.28849 8.87792Z" fill="#2B3445"/>
</svg>
