<svg width="567" height="583" viewBox="0 0 567 583" fill="none" xmlns="http://www.w3.org/2000/svg">
<path d="M116.512 412.786C86.5989 368.342 75.5664 313.834 85.8417 261.255C96.117 208.676 126.858 162.332 171.303 132.419C215.748 102.506 270.256 91.4732 322.835 101.749C375.414 112.024 421.757 142.765 451.671 187.21L284.091 299.998L116.512 412.786Z" fill="#ED8E00"/>
<path d="M451.471 187.049C481.358 231.512 492.358 286.026 482.051 338.599C471.744 391.171 440.975 437.497 396.512 467.384C352.05 497.27 297.536 508.27 244.963 497.963C192.39 487.657 146.064 456.888 116.178 412.425L283.824 299.737L451.471 187.049Z" fill="#8E0000"/>
<path d="M328.872 106.122C342.224 98.9129 356.381 109.149 349.875 122.857C343.676 135.92 334.648 149.963 323.075 164.408C300.777 192.238 270.291 219.987 236.4 243.3C202.51 266.613 167.132 284.171 135.819 293.219C120.17 297.741 105.979 300.01 93.7441 300.024C78.4139 300.043 75.643 282.831 87.3034 272.879V272.879C94.4387 266.789 104.741 266.172 114.055 267.292C124.695 268.573 137.971 267.03 153.072 262.667C176.36 255.938 202.671 242.88 227.876 225.542C253.081 208.203 275.754 187.566 292.336 166.869C305.357 150.617 314.045 135.05 317.673 121.656C319.406 115.258 323.039 109.271 328.872 106.122V106.122Z" fill="white"/>
<circle cx="415.593" cy="346.606" r="14.5" transform="rotate(-0.607971 415.593 346.606)" fill="#319900" stroke="#1B5300"/>
<circle cx="430.593" cy="346.446" r="14.5" transform="rotate(-0.607971 430.593 346.446)" fill="#319900" stroke="#1B5300"/>
<circle cx="424.476" cy="335.511" r="14.5" transform="rotate(-0.607971 424.476 335.511)" fill="#319900" stroke="#1B5300"/>
</svg>
