<svg width="966" height="966" viewBox="0 0 966 966" fill="none" xmlns="http://www.w3.org/2000/svg">
<path d="M748.234 700.485C690.553 770.83 607.291 815.38 516.763 824.334C426.236 833.289 335.859 805.915 265.515 748.234C195.17 690.553 150.62 607.291 141.666 516.763C132.711 426.236 160.085 335.859 217.766 265.515L483 483L748.234 700.485Z" fill="#ED8E00"/>
<path d="M217.754 265.529C275.431 195.181 358.692 150.627 449.219 141.668C539.745 132.708 630.124 160.077 700.471 217.754C770.819 275.431 815.373 358.692 824.332 449.219C833.292 539.745 805.923 630.124 748.246 700.471L483 483L217.754 265.529Z" fill="#8E0000"/>
</svg>
