<svg width="66" height="54" viewBox="0 0 66 54" fill="none" xmlns="http://www.w3.org/2000/svg">
<path d="M7.44 24.24C6.56 24.24 5.728 24.16 4.944 24C4.16 23.824 3.48 23.616 2.904 23.376C2.328 23.136 1.904 22.912 1.632 22.704V18.408C2.4 18.84 3.368 19.248 4.536 19.632C5.704 20 7 20.184 8.424 20.184C9 20.184 9.424 20.112 9.696 19.968C9.984 19.808 10.128 19.536 10.128 19.152C10.128 18.736 9.808 18.392 9.168 18.12C8.544 17.832 7.552 17.48 6.192 17.064C5.136 16.728 4.232 16.36 3.48 15.96C2.744 15.544 2.176 15.032 1.776 14.424C1.392 13.8 1.2 13.008 1.2 12.048C1.2 11.056 1.456 10.16 1.968 9.36C2.48 8.56 3.28 7.928 4.368 7.464C5.456 7 6.848 6.768 8.544 6.768C9.056 6.768 9.6 6.792 10.176 6.84C10.768 6.872 11.24 6.92 11.592 6.984L14.304 8.976L13.368 11.904L7.68 10.344C7.024 10.344 6.536 10.48 6.216 10.752C5.912 11.024 5.76 11.352 5.76 11.736C5.76 12.2 6.024 12.568 6.552 12.84C7.08 13.112 7.84 13.384 8.832 13.656C10.4 14.088 11.616 14.568 12.48 15.096C13.344 15.624 13.952 16.224 14.304 16.896C14.656 17.552 14.832 18.296 14.832 19.128C14.832 20.664 14.216 21.904 12.984 22.848C11.752 23.776 9.904 24.24 7.44 24.24ZM16.0369 24L17.1889 19.944V16.896L18.9649 16.176L22.0849 7.032H28.3009L32.1649 17.784L34.0129 21.192V24H29.7649L28.5649 20.16H21.5809L20.5489 24H16.0369ZM23.1649 16.464H27.2449L25.4209 10.968H24.9169L23.1649 16.464Z" fill="black"/>
<path d="M38.44 48.24C37.56 48.24 36.728 48.16 35.944 48C35.16 47.824 34.48 47.616 33.904 47.376C33.328 47.136 32.904 46.912 32.632 46.704V42.408C33.4 42.84 34.368 43.248 35.536 43.632C36.704 44 38 44.184 39.424 44.184C40 44.184 40.424 44.112 40.696 43.968C40.984 43.808 41.128 43.536 41.128 43.152C41.128 42.736 40.808 42.392 40.168 42.12C39.544 41.832 38.552 41.48 37.192 41.064C36.136 40.728 35.232 40.36 34.48 39.96C33.744 39.544 33.176 39.032 32.776 38.424C32.392 37.8 32.2 37.008 32.2 36.048C32.2 35.056 32.456 34.16 32.968 33.36C33.48 32.56 34.28 31.928 35.368 31.464C36.456 31 37.848 30.768 39.544 30.768C40.056 30.768 40.6 30.792 41.176 30.84C41.768 30.872 42.24 30.92 42.592 30.984L45.304 32.976L44.368 35.904L38.68 34.344C38.024 34.344 37.536 34.48 37.216 34.752C36.912 35.024 36.76 35.352 36.76 35.736C36.76 36.2 37.024 36.568 37.552 36.84C38.08 37.112 38.84 37.384 39.832 37.656C41.4 38.088 42.616 38.568 43.48 39.096C44.344 39.624 44.952 40.224 45.304 40.896C45.656 41.552 45.832 42.296 45.832 43.128C45.832 44.664 45.216 45.904 43.984 46.848C42.752 47.776 40.904 48.24 38.44 48.24ZM47.0369 48L48.1889 43.944V40.896L49.9649 40.176L53.0849 31.032H59.3009L63.1649 41.784L65.0129 45.192V48H60.7649L59.5649 44.16H52.5809L51.5489 48H47.0369ZM54.1649 40.464H58.2449L56.4209 34.968H55.9169L54.1649 40.464Z" fill="black"/>
<line x1="61.2265" y1="14.4457" x2="0.226524" y2="45.4457" stroke="black"/>
</svg>
